<?xml version='1.0' encoding='UTF-8' standalone='no'?>
<svg xmlns:xlink="http://www.w3.org/1999/xlink" xmlns="http://www.w3.org/2000/svg" viewBox="0 0 576 432" width="576pt" height="432pt">
 <title>gl2ps_renderer figure</title>
 <desc>
Creator: GL2PS 1.4.0, (C) 1999-2017 C. Geuzaine
For: Octave
CreationDate: Tue Jul 28 14:35:39 2020
</desc>
 <defs/>
 <polygon points="0,0 576,0 576,432 0,432" fill="#ffffff"/>
 <g>
  <polygon points="0,432 576,432 576,0 0,0" fill="#ffffff" shape-rendering="crispEdges"/>
  <clipPath id="cp00576432">
   <polygon points="0,432 576,432 576,0 0,0"/>
  </clipPath>
  <g clip-path="url(#cp00576432)">
   <polygon points="74.88,384.48 521.28,384.48 521.28,32.4 74.88,32.4" fill="#ffffff" shape-rendering="crispEdges"/>
   <polyline stroke-linejoin="miter" points="74.88,384.48 74.88,32.4" stroke="#262626" stroke-opacity="0.15" stroke-linecap="butt" stroke-width="0.5" fill="none" stroke-dasharray="16,0"/>
   <polyline stroke-linejoin="miter" points="164.16,384.48 164.16,32.4" stroke="#262626" stroke-opacity="0.15" stroke-linecap="butt" stroke-width="0.5" fill="none" stroke-dasharray="16,0"/>
   <polyline stroke-linejoin="miter" points="253.44,384.48 253.44,32.4" stroke="#262626" stroke-opacity="0.15" stroke-linecap="butt" stroke-width="0.5" fill="none" stroke-dasharray="16,0"/>
   <polyline stroke-linejoin="miter" points="342.72,384.48 342.72,32.4" stroke="#262626" stroke-opacity="0.15" stroke-linecap="butt" stroke-width="0.5" fill="none" stroke-dasharray="16,0"/>
   <polyline stroke-linejoin="miter" points="432,384.48 432,32.4" stroke="#262626" stroke-opacity="0.15" stroke-linecap="butt" stroke-width="0.5" fill="none" stroke-dasharray="16,0"/>
   <polyline stroke-linejoin="miter" points="521.28,384.48 521.28,32.4" stroke="#262626" stroke-opacity="0.15" stroke-linecap="butt" stroke-width="0.5" fill="none" stroke-dasharray="16,0"/>
   <polyline stroke-linejoin="miter" points="74.88,384.48 74.88,380.015" stroke="#262626" stroke-linecap="butt" stroke-width="0.5" fill="none"/>
   <polyline stroke-linejoin="miter" points="74.88,32.4 74.88,36.865" stroke="#262626" stroke-linecap="butt" stroke-width="0.5" fill="none"/>
   <polyline stroke-linejoin="miter" points="164.16,384.48 164.16,380.015" stroke="#262626" stroke-linecap="butt" stroke-width="0.5" fill="none"/>
   <polyline stroke-linejoin="miter" points="164.16,32.4 164.16,36.865" stroke="#262626" stroke-linecap="butt" stroke-width="0.5" fill="none"/>
   <polyline stroke-linejoin="miter" points="253.44,384.48 253.44,380.015" stroke="#262626" stroke-linecap="butt" stroke-width="0.5" fill="none"/>
   <polyline stroke-linejoin="miter" points="253.44,32.4 253.44,36.865" stroke="#262626" stroke-linecap="butt" stroke-width="0.5" fill="none"/>
   <polyline stroke-linejoin="miter" points="342.72,384.48 342.72,380.015" stroke="#262626" stroke-linecap="butt" stroke-width="0.5" fill="none"/>
   <polyline stroke-linejoin="miter" points="342.72,32.4 342.72,36.865" stroke="#262626" stroke-linecap="butt" stroke-width="0.5" fill="none"/>
   <polyline stroke-linejoin="miter" points="432,384.48 432,380.015" stroke="#262626" stroke-linecap="butt" stroke-width="0.5" fill="none"/>
   <polyline stroke-linejoin="miter" points="432,32.4 432,36.865" stroke="#262626" stroke-linecap="butt" stroke-width="0.5" fill="none"/>
   <polyline stroke-linejoin="miter" points="521.28,384.48 521.28,380.015" stroke="#262626" stroke-linecap="butt" stroke-width="0.5" fill="none"/>
   <polyline stroke-linejoin="miter" points="521.28,32.4 521.28,36.865" stroke="#262626" stroke-linecap="butt" stroke-width="0.5" fill="none"/>
   <text font-style="normal" xml:space="preserve" font-weight="normal" transform="translate(65.88,399.982) rotate(-0,9,-8)" font-size="10" font-family="FreeSans">
    <tspan x="0 3 9 12 " fill="rgb(38,38,38)" y="-0">-1.5</tspan>
   </text>
   <text font-style="normal" xml:space="preserve" font-weight="normal" transform="translate(159.66,399.982) rotate(-0,4.5,-8)" font-size="10" font-family="FreeSans">
    <tspan x="0 3 " fill="rgb(38,38,38)" y="-0">-1</tspan>
   </text>
   <text font-style="normal" xml:space="preserve" font-weight="normal" transform="translate(244.44,399.982) rotate(-0,9,-8)" font-size="10" font-family="FreeSans">
    <tspan x="0 3 9 12 " fill="rgb(38,38,38)" y="-0">-0.5</tspan>
   </text>
   <text font-style="normal" xml:space="preserve" font-weight="normal" transform="translate(339.72,399.982) rotate(-0,3,-8)" font-size="10" font-family="FreeSans">
    <tspan x="0 " fill="rgb(38,38,38)" y="-0">0</tspan>
   </text>
   <text font-style="normal" xml:space="preserve" font-weight="normal" transform="translate(424.5,399.982) rotate(-0,7.5,-8)" font-size="10" font-family="FreeSans">
    <tspan x="0 6 9 " fill="rgb(38,38,38)" y="-0">0.5</tspan>
   </text>
   <text font-style="normal" xml:space="preserve" font-weight="normal" transform="translate(518.28,399.982) rotate(-0,3,-8)" font-size="10" font-family="FreeSans">
    <tspan x="0 " fill="rgb(38,38,38)" y="-0">1</tspan>
   </text>
   <polyline stroke-linejoin="miter" points="74.88,384.48 521.28,384.48" stroke="#262626" stroke-opacity="0.15" stroke-linecap="butt" stroke-width="0.5" fill="none" stroke-dasharray="16,0"/>
   <polyline stroke-linejoin="miter" points="74.88,296.46 521.28,296.46" stroke="#262626" stroke-opacity="0.15" stroke-linecap="butt" stroke-width="0.5" fill="none" stroke-dasharray="16,0"/>
   <polyline stroke-linejoin="miter" points="74.88,208.44 521.28,208.44" stroke="#262626" stroke-opacity="0.15" stroke-linecap="butt" stroke-width="0.5" fill="none" stroke-dasharray="16,0"/>
   <polyline stroke-linejoin="miter" points="74.88,120.42 521.28,120.42" stroke="#262626" stroke-opacity="0.15" stroke-linecap="butt" stroke-width="0.5" fill="none" stroke-dasharray="16,0"/>
   <polyline stroke-linejoin="miter" points="74.88,32.4 521.28,32.4" stroke="#262626" stroke-opacity="0.15" stroke-linecap="butt" stroke-width="0.5" fill="none" stroke-dasharray="16,0"/>
   <polyline stroke-linejoin="miter" points="74.88,384.48 79.348,384.48" stroke="#262626" stroke-linecap="butt" stroke-width="0.5" fill="none"/>
   <polyline stroke-linejoin="miter" points="521.28,384.48 516.812,384.48" stroke="#262626" stroke-linecap="butt" stroke-width="0.5" fill="none"/>
   <polyline stroke-linejoin="miter" points="74.88,296.46 79.348,296.46" stroke="#262626" stroke-linecap="butt" stroke-width="0.5" fill="none"/>
   <polyline stroke-linejoin="miter" points="521.28,296.46 516.812,296.46" stroke="#262626" stroke-linecap="butt" stroke-width="0.5" fill="none"/>
   <polyline stroke-linejoin="miter" points="74.88,208.44 79.348,208.44" stroke="#262626" stroke-linecap="butt" stroke-width="0.5" fill="none"/>
   <polyline stroke-linejoin="miter" points="521.28,208.44 516.812,208.44" stroke="#262626" stroke-linecap="butt" stroke-width="0.5" fill="none"/>
   <polyline stroke-linejoin="miter" points="74.88,120.42 79.348,120.42" stroke="#262626" stroke-linecap="butt" stroke-width="0.5" fill="none"/>
   <polyline stroke-linejoin="miter" points="521.28,120.42 516.812,120.42" stroke="#262626" stroke-linecap="butt" stroke-width="0.5" fill="none"/>
   <polyline stroke-linejoin="miter" points="74.88,32.4 79.348,32.4" stroke="#262626" stroke-linecap="butt" stroke-width="0.5" fill="none"/>
   <polyline stroke-linejoin="miter" points="521.28,32.4 516.812,32.4" stroke="#262626" stroke-linecap="butt" stroke-width="0.5" fill="none"/>
   <text font-style="normal" xml:space="preserve" font-weight="normal" transform="translate(63.8755,388.48) rotate(-0,6,-4)" font-size="10" font-family="FreeSans">
    <tspan x="0 " fill="rgb(38,38,38)" y="-0">0</tspan>
   </text>
   <text font-style="normal" xml:space="preserve" font-weight="normal" transform="translate(54.8755,300.46) rotate(-0,15,-4)" font-size="10" font-family="FreeSans">
    <tspan x="0 6 9 " fill="rgb(38,38,38)" y="-0">0.5</tspan>
   </text>
   <text font-style="normal" xml:space="preserve" font-weight="normal" transform="translate(63.8755,212.44) rotate(-0,6,-4)" font-size="10" font-family="FreeSans">
    <tspan x="0 " fill="rgb(38,38,38)" y="-0">1</tspan>
   </text>
   <text font-style="normal" xml:space="preserve" font-weight="normal" transform="translate(54.8755,124.42) rotate(-0,15,-4)" font-size="10" font-family="FreeSans">
    <tspan x="0 6 9 " fill="rgb(38,38,38)" y="-0">1.5</tspan>
   </text>
   <text font-style="normal" xml:space="preserve" font-weight="normal" transform="translate(63.8755,36.4) rotate(-0,6,-4)" font-size="10" font-family="FreeSans">
    <tspan x="0 " fill="rgb(38,38,38)" y="-0">2</tspan>
   </text>
   <polyline stroke-linejoin="miter" points="74.88,384.48 521.28,384.48" stroke="#262626" stroke-linecap="square" stroke-width="0.5" fill="none" stroke-dasharray="16,0"/>
   <polyline stroke-linejoin="miter" points="74.88,32.4 521.28,32.4" stroke="#262626" stroke-linecap="square" stroke-width="0.5" fill="none" stroke-dasharray="16,0"/>
   <polyline stroke-linejoin="miter" points="74.88,384.48 74.88,32.4" stroke="#262626" stroke-linecap="square" stroke-width="0.5" fill="none" stroke-dasharray="16,0"/>
   <polyline stroke-linejoin="miter" points="521.28,384.48 521.28,32.4" stroke="#262626" stroke-linecap="square" stroke-width="0.5" fill="none" stroke-dasharray="16,0"/>
   <text font-style="normal" xml:space="preserve" font-weight="normal" transform="translate(295.58,411.982) rotate(-0,2.5,-7)" font-size="11" font-family="FreeSans">
    <tspan x="0 " fill="rgb(38,38,38)" y="-0">x</tspan>
   </text>
   <text font-style="normal" xml:space="preserve" font-weight="normal" transform="translate(47.3755,208.44) rotate(-90,2.5,0)" font-size="11" font-family="FreeSans">
    <tspan x="0 " fill="rgb(38,38,38)" y="-2">y</tspan>
   </text>
   <text font-style="normal" xml:space="preserve" font-weight="bold" transform="translate(230.08,22.4) rotate(-0,68,0)" font-size="11" font-family="FreeSans">
    <tspan x="0 6 10 17 23 27 30 38 41 48 54 60 67 71 77 84 90 93 100 103 111 118 125 132 " fill="rgb(0,0,0)" y="-1">5-bar Closed-chain Robot</tspan>
   </text>
   <polyline stroke-linejoin="round" points="342.72,384.48 519.473,359.502 387.36,32.4 88.4444,225.05 164.16,384.48" stroke="#0071bc" stroke-linecap="butt" stroke-width="0.5" fill="none"/>
   <polyline stroke-linejoin="round" points="345.72,384.48 345.147,386.243 343.647,387.333 341.793,387.333 340.293,386.243 339.72,384.48 340.293,382.717 341.793,381.627 343.647,381.627 345.147,382.717 345.72,384.48" stroke="#ff0000" stroke-linecap="round" stroke-width="0.5" fill="none"/>
   <polyline stroke-linejoin="round" points="522.473,359.502 521.9,361.265 520.4,362.355 518.546,362.355 517.046,361.265 516.473,359.502 517.046,357.738 518.546,356.649 520.4,356.649 521.9,357.738 522.473,359.502" stroke="#ff0000" stroke-linecap="round" stroke-width="0.5" fill="none"/>
   <polyline stroke-linejoin="round" points="390.36,32.4 389.787,34.1633 388.287,35.2532 386.433,35.2532 384.933,34.1633 384.36,32.4 384.933,30.6367 386.433,29.5468 388.287,29.5468 389.787,30.6367 390.36,32.4" stroke="#ff0000" stroke-linecap="round" stroke-width="0.5" fill="none"/>
   <polyline stroke-linejoin="round" points="91.4444,225.05 90.8715,226.813 89.3715,227.903 87.5174,227.903 86.0174,226.813 85.4444,225.05 86.0174,223.287 87.5174,222.197 89.3715,222.197 90.8715,223.287 91.4444,225.05" stroke="#ff0000" stroke-linecap="round" stroke-width="0.5" fill="none"/>
   <polyline stroke-linejoin="round" points="167.16,384.48 166.587,386.243 165.087,387.333 163.233,387.333 161.733,386.243 161.16,384.48 161.733,382.717 163.233,381.627 165.087,381.627 166.587,382.717 167.16,384.48" stroke="#ff0000" stroke-linecap="round" stroke-width="0.5" fill="none"/>
  </g>
 </g>
</svg>
